HIERARCHY
ROOT Hips
{
	OFFSET 0.000000 0.000000 0.000000
	CHANNELS 6 Xposition Yposition Zposition Yrotation Xrotation Zrotation
	JOINT Chest
	{
		OFFSET 0.000000 -0.009281 11.569106
		CHANNELS 3 Yrotation Xrotation Zrotation
		JOINT Chest2
		{
			OFFSET -0.000000 0.016865 9.269641
			CHANNELS 3 Yrotation Xrotation Zrotation
			JOINT Chest3
			{
				OFFSET -0.000000 0.000001 8.374491
				CHANNELS 3 Yrotation Xrotation Zrotation
				JOINT Chest4
				{
					OFFSET -0.000000 0.000001 8.374493
					CHANNELS 3 Yrotation Xrotation Zrotation
					JOINT Neck
					{
						OFFSET -0.000000 0.000002 12.152554
						CHANNELS 3 Yrotation Xrotation Zrotation
						JOINT Head
						{
							OFFSET -0.000000 0.040101 7.802319
							CHANNELS 3 Yrotation Xrotation Zrotation
							End Site
							{
								OFFSET -0.000000 0.020947 14.853096
							}
						}
					}
					JOINT RightCollar
					{
						OFFSET 2.894404 0.000001 6.791374
						CHANNELS 3 Yrotation Xrotation Zrotation
						JOINT RightShoulder
						{
							OFFSET 13.574684 0.000001 0.000000
							CHANNELS 3 Yrotation Xrotation Zrotation
							JOINT RightElbow
							{
								OFFSET 23.923903 0.000002 0.000000
								CHANNELS 3 Yrotation Xrotation Zrotation
								JOINT RightWrist
								{
									OFFSET 19.846718 0.012767 0.000000
									CHANNELS 3 Yrotation Xrotation Zrotation
									End Site
									{
										OFFSET 14.973145 0.000001 0.000000
									}
								}
							}
						}
					}
					JOINT LeftCollar
					{
						OFFSET -2.894404 0.000001 6.791374
						CHANNELS 3 Yrotation Xrotation Zrotation
						JOINT LeftShoulder
						{
							OFFSET -13.574684 -0.000001 0.000000
							CHANNELS 3 Yrotation Xrotation Zrotation
							JOINT LeftElbow
							{
								OFFSET -23.923903 -0.000002 0.000000
								CHANNELS 3 Yrotation Xrotation Zrotation
								JOINT LeftWrist
								{
									OFFSET -19.846718 0.012763 0.000000
									CHANNELS 3 Yrotation Xrotation Zrotation
									End Site
									{
										OFFSET -14.973145 -0.000001 0.000000
									}
								}
							}
						}
					}
				}
			}
		}
	}
	JOINT RightHip
	{
		OFFSET 9.469263 0.004643 0.045487
		CHANNELS 3 Yrotation Xrotation Zrotation
		JOINT RightKnee
		{
			OFFSET 0.000000 0.002661 -40.478676
			CHANNELS 3 Yrotation Xrotation Zrotation
			JOINT RightAnkle
			{
				OFFSET 0.000000 0.049106 -35.224068
				CHANNELS 3 Yrotation Xrotation Zrotation
				JOINT RightToe
				{
					OFFSET -0.000001 12.539529 -6.151390
					CHANNELS 3 Yrotation Xrotation Zrotation
					End Site
					{
						OFFSET -0.000001 5.044994 -1.291870
					}
				}
			}
		}
	}
	JOINT LeftHip
	{
		OFFSET -9.469263 0.004641 0.045487
		CHANNELS 3 Yrotation Xrotation Zrotation
		JOINT LeftKnee
		{
			OFFSET 0.000000 0.002661 -40.478676
			CHANNELS 3 Yrotation Xrotation Zrotation
			JOINT LeftAnkle
			{
				OFFSET 0.000000 0.049106 -35.224068
				CHANNELS 3 Yrotation Xrotation Zrotation
				JOINT LeftToe
				{
					OFFSET -0.000001 12.539529 -6.151390
					CHANNELS 3 Yrotation Xrotation Zrotation
					End Site
					{
						OFFSET -0.000001 5.044994 -1.291870
					}
				}
			}
		}
	}
}
MOTION
Frames: 6
Frame Time: 0.016667
8.214938 0.192871 74.339012 5.417920 -2.065161 -99.559781 5.698332 -7.645448 -7.414290 3.063700 -3.171340 -3.944361 3.063699 -3.171341 -3.944361 2.276815 -2.398463 -2.941692 -3.566490 -18.544020 4.370466 -5.118919 1.799003 6.857559 5.432739 4.558480 -0.534316 47.684713 30.451507 -2.967948 -0.297790 -2.732380 -4.030822 -36.060411 22.759647 29.461000 -10.614730 0.542634 -9.283714 -60.422066 -5.093401 -54.376953 -29.610205 -45.632600 -37.054056 21.007319 5.452086 -36.176056 5.867009 53.045261 -0.944581 37.303758 -55.454545 -43.630497 -13.884323 16.231161 -0.360910 0.667585 -0.178381 0.516579 -13.471652 15.758792 6.365236 -25.636589 -40.264030 40.930066 32.569146 -30.408562 -18.081095 39.461787 72.248006 28.684626 
8.447453 0.322099 74.297821 5.592781 -2.327715 -99.654782 5.851692 -7.625114 -7.455088 3.115773 -3.168353 -3.959542 3.115773 -3.168355 -3.959543 2.315804 -2.396637 -2.952825 -3.539678 -18.557113 4.413641 -5.056006 1.774139 6.945725 5.335592 4.611431 -0.495919 47.242042 30.489053 -2.461097 -0.549814 -3.536812 -4.720475 -35.143936 21.220418 28.374547 -10.666990 0.631262 -9.214920 -60.372718 -5.513948 -54.154132 -29.578329 -45.866240 -36.225691 20.665233 4.975038 -36.131626 6.044183 53.078800 -0.824260 37.640431 -55.512998 -43.997616 -13.824682 16.417729 -0.331082 0.649038 -0.193482 0.505870 -13.349249 15.710472 6.354344 -25.558587 -40.213787 40.869871 32.439171 -30.373383 -17.953314 39.787935 72.276092 28.965261 
8.677134 0.445788 74.261971 5.774130 -2.612951 -99.740009 6.009491 -7.616715 -7.484166 3.164502 -3.174715 -3.965233 3.164503 -3.174714 -3.965234 2.352270 -2.401760 -2.956805 -3.499474 -18.555420 4.426275 -4.978056 1.776255 6.982045 5.289769 4.672584 -0.496515 46.751252 30.699802 -1.857516 -0.773019 -4.286203 -5.409305 -33.962296 19.560986 27.300363 -10.666285 0.764368 -9.214358 -60.386836 -5.932759 -53.893256 -29.485800 -46.079076 -35.409227 20.350887 4.373835 -36.148325 6.260816 53.100209 -0.660407 37.948890 -55.541234 -44.325342 -13.754966 16.585610 -0.297254 0.632709 -0.207458 0.496102 -13.184788 15.692899 6.321438 -25.490596 -40.175415 40.732656 32.297694 -30.506265 -17.841108 40.496960 72.334299 29.558880 
8.914606 0.567893 74.229095 5.934928 -2.909395 -99.825154 6.188382 -7.610712 -7.523301 3.213792 -3.182532 -3.974236 3.213791 -3.182529 -3.974235 2.389131 -2.407987 -2.963256 -3.472295 -18.553108 4.429173 -4.927169 1.779811 6.996249 5.231157 4.669566 -0.473348 46.262425 31.088470 -1.133544 -0.992001 -4.944009 -6.114084 -32.715039 17.945144 26.302936 -10.685993 0.940188 -9.212712 -60.439354 -6.365989 -53.605684 -29.300408 -46.334555 -34.570442 20.168258 3.845088 -36.148090 6.504748 53.082851 -0.501424 38.190835 -55.568517 -44.578828 -13.694013 16.743159 -0.299032 0.628259 -0.215408 0.485063 -12.998230 15.652639 6.301129 -25.428823 -40.128249 40.568154 32.183715 -30.714227 -17.766475 41.416512 72.411152 30.326101 
9.171883 0.686333 74.200691 6.070583 -3.202795 -99.906878 6.364513 -7.601858 -7.562183 3.260159 -3.187737 -3.983017 3.260159 -3.187738 -3.983021 2.423817 -2.412245 -2.969572 -3.446847 -18.558799 4.420822 -4.883371 1.768554 6.989295 5.153819 4.674951 -0.489387 45.827878 31.570155 -0.321966 -1.267034 -5.536891 -6.799513 -31.642702 16.479727 25.350192 -10.724074 1.111724 -9.232861 -60.451655 -6.856272 -53.301601 -29.034093 -46.564152 -33.719414 20.052232 3.531709 -36.028790 6.746410 53.019740 -0.393685 38.345662 -55.630272 -44.757499 -13.636646 16.916184 -0.301207 0.642074 -0.218993 0.477446 -12.810281 15.554707 6.298445 -25.362500 -40.044330 40.413212 32.108811 -30.932571 -17.741309 42.409765 72.499391 31.161563 
9.450158 0.791516 74.178947 6.192722 -3.527032 -99.969982 6.569253 -7.583165 -7.606226 3.305638 -3.187118 -3.995280 3.305637 -3.187118 -3.995281 2.457862 -2.412150 -2.978537 -3.425878 -18.575014 4.406179 -4.850170 1.737882 6.969397 5.088239 4.690643 -0.518161 45.435634 32.132301 0.554697 -1.596116 -5.983798 -7.408531 -30.852173 15.225591 24.355382 -10.772462 1.216691 -9.265130 -60.408816 -7.415930 -53.002446 -28.767442 -46.634145 -32.862212 19.846933 3.310623 -35.838354 6.993048 52.893081 -0.345505 38.447189 -55.673285 -44.878458 -13.599516 17.091621 -0.266899 0.662999 -0.214132 0.470135 -12.596663 15.389019 6.322345 -25.266260 -39.933316 40.267828 32.066263 -31.083798 -17.737754 43.252310 72.592719 31.871292 
